HIERARCHY
ROOT SpineBase
{
  OFFSET 0.000000 0.000000 0.000000
  CHANNELS 6 Xposition Yposition Zposition Zrotation Xrotation Yrotation
  JOINT SpineMid
  {
    OFFSET 0.000000 33.146004 0.000000
    CHANNELS 3 Zrotation Xrotation Yrotation
    JOINT SpineShoulder
    {
      OFFSET -0.016866 24.514431 -0.960536
      CHANNELS 3 Zrotation Xrotation Yrotation
      JOINT Neck
      {
        OFFSET -0.055744 8.101826 -0.708127
        CHANNELS 3 Zrotation Xrotation Yrotation
        JOINT Head
        {
          OFFSET -1.053299 9.174536 1.227671
          CHANNELS 3 Zrotation Xrotation Yrotation
          End Site
          {
            OFFSET 0 0 0
          }
        }
      }
      JOINT ShoulderLeft
      {
        OFFSET -15.241669 -3.726202 0.624257
        CHANNELS 3 Zrotation Xrotation Yrotation
        JOINT ElbowLeft
        {
          OFFSET -2.197582 -27.305965 6.154423
          CHANNELS 3 Zrotation Xrotation Yrotation
          JOINT WristLeft
          {
            OFFSET -2.723799 -20.354629 4.076322
            CHANNELS 3 Zrotation Xrotation Yrotation
            JOINT HandLeft
            {
              OFFSET 2.269134 -1.026243 4.435978
              CHANNELS 3 Zrotation Xrotation Yrotation
              JOINT HandTipLeft
              {
                OFFSET -0.558250 -2.551208 1.373845
                CHANNELS 3 Zrotation Xrotation Yrotation
                End Site
                {
                  OFFSET 0 0 0
                }
              }
              JOINT ThumbLeft
              {
                OFFSET 0.254980 1.840411 -1.729306
                CHANNELS 3 Zrotation Xrotation Yrotation
                End Site
                {
                  OFFSET 0 0 0
                }
              }
            }
          }
        }
      }
      JOINT ShoulderRight
      {
        OFFSET 10.555051 -4.612208 -9.992961
        CHANNELS 3 Zrotation Xrotation Yrotation
        JOINT ElbowRight
        {
          OFFSET 9.581669 -26.647876 -4.923158
          CHANNELS 3 Zrotation Xrotation Yrotation
          JOINT WristRight
          {
            OFFSET 6.664911 -28.795804 -1.674738
            CHANNELS 3 Zrotation Xrotation Yrotation
            JOINT HandRight
            {
              OFFSET -0.664361 -4.837565 0.098820
              CHANNELS 3 Zrotation Xrotation Yrotation
              JOINT HandTipRight
              {
                OFFSET -1.064166 -5.815882 -2.886049
                CHANNELS 3 Zrotation Xrotation Yrotation
                End Site
                {
                  OFFSET 0 0 0
                }
              }
              JOINT ThumbRight
              {
                OFFSET 1.941236 -0.375604 -5.561857
                CHANNELS 3 Zrotation Xrotation Yrotation
                End Site
                {
                  OFFSET 0 0 0
                }
              }
            }
          }
        }
      }
    }
  }
  JOINT HipLeft
  {
    OFFSET -6.711758 0.680701 -0.882603
    CHANNELS 3 Zrotation Xrotation Yrotation
    JOINT KneeLeft
    {
      OFFSET -2.664407 -35.600495 0.291331
      CHANNELS 3 Zrotation Xrotation Yrotation
      JOINT AnkleLeft
      {
        OFFSET -4.614710 -37.601941 -1.665366
        CHANNELS 3 Zrotation Xrotation Yrotation
        JOINT FootLeft
        {
          OFFSET -4.158436 -3.619256 -12.763419
          CHANNELS 3 Zrotation Xrotation Yrotation
          End Site
          {
            OFFSET 0 0 0
          }
        }
      }
    }
  }
  JOINT HipRight
  {
    OFFSET 6.156445 1.998485 -6.166446
    CHANNELS 3 Zrotation Xrotation Yrotation
    JOINT KneeRight
    {
      OFFSET 2.704789 -39.077531 -1.285258
      CHANNELS 3 Zrotation Xrotation Yrotation
      JOINT AnkleRight
      {
        OFFSET 3.361325 -35.689927 1.911162
        CHANNELS 3 Zrotation Xrotation Yrotation
        JOINT FootRight
        {
          OFFSET -4.455216 -3.614324 -12.729626
          CHANNELS 3 Zrotation Xrotation Yrotation
          End Site
          {
            OFFSET 0 0 0
          }
        }
      }
    }
  }
}
MOTION
Frames: 5
Frame Time: 0.033333
27.758219 79.186828 273.689483 -0.384562 -1.275388 21.208252 0.315470 0.262847 -21.222163 0.185398 0.916237 0.006414 3.603590 5.171603 -0.050536 0.000000 0.000000 0.000000 -5.693236 -17.332617 -0.719449 0.494442 -0.457928 1.097795 -17.700621 60.917421 -22.256388 24.718294 3.974297 40.022781 0.000000 0.000000 0.000000 0.000000 0.000000 0.000000 5.875974 -5.185374 -2.658677 -6.600469 -10.643619 -0.399573 16.663334 -0.567546 4.036841 -4.730140 -24.019057 3.203922 0.000000 0.000000 0.000000 0.000000 0.000000 0.000000 -0.935065 0.666950 -21.131843 4.442158 0.600011 -0.199127 -2.944350 0.380548 0.093201 0.000000 0.000000 0.000000 3.233702 -1.224707 -21.403484 -4.880852 0.304187 0.060558 1.803837 0.929825 0.169360 0.000000 0.000000 0.000000
27.796236 79.164185 273.694042 -0.403332 -1.213686 18.097382 0.262131 0.351249 -18.113340 0.263118 0.798433 0.009028 4.057077 4.348977 -0.195905 0.000000 0.000000 0.000000 -10.670841 -25.520805 -2.594691 1.903721 7.467521 1.064468 -16.260359 63.379166 -22.208171 19.618292 8.955570 38.875437 0.000000 0.000000 0.000000 0.000000 0.000000 0.000000 4.880677 -5.190760 -2.530572 -5.470251 -10.132056 -0.512215 16.891217 -0.737683 3.977683 -6.273950 -23.509917 3.702451 0.000000 0.000000 0.000000 0.000000 0.000000 0.000000 -1.115459 0.070248 -17.990980 4.550863 1.051448 -0.269904 -3.063569 0.426224 0.094479 0.000000 0.000000 0.000000 3.436861 -0.638967 -18.270143 -4.836946 -0.142603 0.003530 1.772838 0.886183 0.164522 0.000000 0.000000 0.000000
27.869802 79.149051 273.705516 -0.408479 -1.145584 19.431375 0.766411 0.944385 -19.441775 -0.000000 0.000000 0.000000 3.840370 3.438981 -0.232647 0.000000 0.000000 0.000000 -16.131241 -32.232274 -5.279252 3.553649 15.409262 1.146040 -14.635285 64.849363 -23.221253 15.075173 12.701428 38.789240 0.000000 0.000000 0.000000 0.000000 0.000000 0.000000 4.674194 -4.854429 -2.395576 -5.724603 -10.316453 -0.661994 18.225956 0.230570 3.482831 -7.871922 -25.843688 4.913968 0.000000 0.000000 0.000000 0.000000 0.000000 0.000000 -1.187471 0.329889 -19.341523 4.802352 0.803387 -0.241412 -3.163452 0.411505 0.100647 0.000000 0.000000 0.000000 2.619385 -0.850559 -19.594722 -3.394755 0.422083 0.070102 1.047527 0.645839 0.110956 0.000000 0.000000 0.000000
27.956326 79.120692 273.745527 -0.416453 -1.065687 24.227031 0.817150 0.800882 -24.236615 -0.000000 0.000000 0.000000 2.933617 3.119472 -0.113567 0.000000 0.000000 0.000000 -21.520591 -36.649583 -8.303742 4.821032 22.732091 1.427905 -12.710897 65.214005 -24.787977 12.657400 14.316457 40.058329 0.000000 0.000000 0.000000 0.000000 0.000000 0.000000 4.850922 -4.233858 -2.221420 -6.112387 -10.406330 -0.760873 18.491675 -0.388523 3.505731 -9.837150 -23.794604 5.220876 0.000000 0.000000 0.000000 0.000000 0.000000 0.000000 -0.995871 1.303024 -24.197162 5.124976 -0.151276 -0.106129 -3.266644 0.430483 0.103780 0.000000 0.000000 0.000000 1.236877 -1.563978 -24.415651 -1.360317 1.979639 0.205335 -0.000000 0.000000 0.000000 0.000000 0.000000 0.000000
28.094719 79.095742 273.809995 -0.368125 -0.951301 32.215359 0.818632 0.608559 -32.222762 -0.000000 0.000000 0.000000 1.475806 2.811118 0.088672 0.000000 0.000000 0.000000 -26.043383 -38.079255 -10.854050 6.724152 28.047911 1.528749 -9.841927 64.451195 -30.087024 10.067696 16.560167 44.903660 0.000000 0.000000 0.000000 0.000000 0.000000 0.000000 5.046917 -3.613260 -2.052570 -6.429121 -10.663259 -0.901108 18.110470 -0.846075 3.589002 -10.624472 -23.292481 5.688326 0.000000 0.000000 0.000000 0.000000 0.000000 0.000000 -0.314603 2.759880 -32.297597 5.301352 -1.511828 0.102528 -3.192478 0.302940 0.112296 0.000000 0.000000 0.000000 -0.851155 -2.487607 -32.501217 0.907375 3.601075 0.257190 -1.160339 -0.086825 -0.071259 0.000000 0.000000 0.000000
